<svg width="70" height="69" viewBox="0 0 70 69" fill="none" xmlns="http://www.w3.org/2000/svg">
<path d="M46 34C46 40.0751 41.0751 45 35 45C28.9249 45 24 40.0751 24 34C24 27.9249 28.9249 23 35 23C41.0751 23 46 27.9249 46 34Z" fill="url(#paint0_linear_23_632)"/>
<path d="M47.9816 48.4853C48.8898 49.6324 48.677 51.2272 47.6571 52.2762C44.6103 55.4099 37.1906 61.627 26 62L20.0809 55.6666C20.0234 55.0981 20 54.5354 20 54C20 47.9249 26.7157 43 35 43C40.5438 43 45.3852 45.2055 47.9816 48.4853Z" fill="url(#paint1_linear_23_632)"/>
<path d="M27.0914 68.1077C35.7941 70.0976 44.9394 68.7317 52.6535 64.29C60.3676 59.8483 66.0667 52.667 68.583 44.2174C71.0993 35.7677 70.2424 26.6894 66.1879 18.8424C62.1333 10.9954 55.1881 4.97373 46.7751 2.01107C38.362 -0.951593 29.1181 -0.630942 20.9372 2.90733C12.7563 6.4456 6.25762 12.9336 2.77271 21.0422C-0.712209 29.1507 -0.919584 38.2659 2.19307 46.5203C5.30573 54.7747 18 62 26 62L20.0809 55.6666C15.7226 52.6818 12.3615 48.4399 10.4912 43.4799C8.1658 37.3134 8.32073 30.5037 10.9242 24.4461C13.5276 18.3886 18.3825 13.5416 24.4942 10.8983C30.6059 8.25497 37.5117 8.01542 43.7967 10.2287C50.0818 12.442 55.2703 16.9406 58.2993 22.8028C61.3283 28.665 61.9685 35.4471 60.0886 41.7595C58.2088 48.0719 51.263 59.1818 45.5 62.5C39.7371 65.8182 27.0914 68.1077 27.0914 68.1077Z" fill="url(#paint2_linear_23_632)"/>
<defs>
<linearGradient id="paint0_linear_23_632" x1="35" y1="0" x2="35" y2="69.0001" gradientUnits="userSpaceOnUse">
<stop stop-color="#1E69B3"/>
<stop offset="1" stop-color="#42BBC7"/>
</linearGradient>
<linearGradient id="paint1_linear_23_632" x1="35" y1="0" x2="35" y2="69.0001" gradientUnits="userSpaceOnUse">
<stop stop-color="#1E69B3"/>
<stop offset="1" stop-color="#42BBC7"/>
</linearGradient>
<linearGradient id="paint2_linear_23_632" x1="35" y1="0" x2="35" y2="69.0001" gradientUnits="userSpaceOnUse">
<stop stop-color="#1E69B3"/>
<stop offset="1" stop-color="#42BBC7"/>
</linearGradient>
</defs>
</svg>
